<?xml version="1.0" standalone="no"?>
<!DOCTYPE svg PUBLIC "-//W3C//DTD SVG 20010904//EN"
 "http://www.w3.org/TR/2001/REC-SVG-20010904/DTD/svg10.dtd">
<svg version="1.0" xmlns="http://www.w3.org/2000/svg"
 width="200.000000pt" height="200.000000pt" viewBox="0 0 200.000000 200.000000"
 preserveAspectRatio="xMidYMid meet">
<metadata>
Created by potrace 1.11, written by Peter Selinger 2001-2013
</metadata>
<g transform="translate(0.000000,200.000000) scale(0.100000,-0.100000)"
fill="#000000" stroke="none">
<path d="M262 1342 c-16 -11 -3 -23 51 -46 20 -8 41 -25 46 -38 8 -22 8 -35
-3 -158 -4 -36 -9 -92 -11 -125 -3 -33 -8 -87 -12 -120 -4 -33 -6 -64 -5 -68
6 -21 -33 -76 -64 -93 -35 -19 -44 -33 -21 -35 6 -1 62 -2 122 -3 147 -2 183
15 92 44 -20 6 -42 21 -49 33 -16 30 -18 373 -2 395 9 13 12 11 18 -12 4 -15
31 -79 61 -142 30 -62 65 -138 77 -166 43 -100 73 -153 87 -153 10 0 45 77
102 218 47 120 89 221 93 224 3 4 6 15 6 25 0 10 4 18 8 18 4 0 9 -60 11 -132
2 -73 4 -164 6 -203 3 -78 -8 -100 -56 -110 -25 -6 -42 -34 -21 -36 4 0 85 -1
179 -2 130 -2 174 1 178 10 2 8 -9 19 -28 27 -65 27 -70 41 -82 251 -20 328
-21 321 45 355 22 11 40 27 40 35 0 11 -18 13 -102 9 -165 -7 -165 -7 -172
-59 -6 -36 -63 -187 -139 -364 l-15 -35 -20 45 c-11 24 -39 89 -62 144 -24 55
-56 130 -71 167 -16 36 -29 71 -29 77 0 5 -5 13 -11 17 -18 10 -232 16 -247 6z"/>
<path d="M1207 1342 c-30 -6 -15 -33 22 -39 8 -1 21 -9 30 -18 14 -14 16 -52
17 -285 1 -289 2 -279 -49 -305 -12 -6 -23 -17 -25 -25 -2 -13 33 -15 255 -15
142 1 263 4 269 8 12 7 38 96 39 131 0 34 -21 28 -48 -13 -42 -63 -67 -75
-158 -75 -43 0 -84 5 -89 10 -10 10 -14 103 -11 227 l1 38 72 -3 72 -3 21 -43
c11 -23 24 -41 30 -39 16 6 15 217 -1 217 -7 0 -16 -9 -19 -20 -13 -42 -45
-60 -106 -60 -32 0 -61 5 -64 10 -4 6 -7 59 -7 117 -1 131 8 142 101 138 70
-3 99 -20 126 -78 29 -60 51 -56 47 8 -2 28 -7 66 -12 85 l-9 35 -244 0 c-133
0 -250 -1 -260 -3z"/>
</g>
</svg>
